<?xml version="1.0" standalone="no"?>
<!DOCTYPE svg PUBLIC "-//W3C//DTD SVG 1.1//EN" "http://www.w3.org/Graphics/SVG/1.1/DTD/svg11.dtd">
<svg xmlns="http://www.w3.org/2000/svg">
<defs >
<font id="Archivo" horiz-adv-x="575" ><font-face
    font-family="Archivo SemiBold SemiBold"
    units-per-em="1000"
    panose-1="0 0 0 0 0 0 0 0 0 0"
    ascent="878"
    descent="-210"
    alphabetic="0" />
<glyph unicode=" " horiz-adv-x="200" />
<glyph unicode="!" horiz-adv-x="292" d="M108 189L75 686H217L184 189H108ZM83 0V128H210V0H83Z" />
<glyph unicode="&quot;" horiz-adv-x="444" d="M78 407L62 539V686H190V539L167 407H78ZM276 407L260 539V686H388V539L365 407H276Z" />
<glyph unicode="#" horiz-adv-x="583" d="M55 -12L92 168H24V266H113L140 399H70V497H161L204 698H304L262 497H382L424 698H525L483 497H559V399H463L435 266H513V168H415L377 -12H276L314 168H193L156 -12H55ZM213 266H334L362 399H241L213 266Z" />
<glyph unicode="$" horiz-adv-x="541" d="M248 -49V723H299V-49H248ZM270 68Q213 68 170 80T98 115T55 166T40 231Q40 236 40 240T41 246H161Q161 244 161 242T161 238Q162 211 178 195T220 171T275 164Q301 164 324 169T363 187T379 220Q379 246 359 260T307
283T237 302Q204 311 171 322T112 350T69 394T52 461Q52 500 69 529T116 577T187 607T276 617Q323 617 361 607T428 579T472 534T488 475Q488 468 488 461T487 453H368V460Q368 479 357 492T324 514T270 522Q246 522 228 518T199 507T181 491T175 471Q175 452 190
441T230 422T286 405Q322 395 360 385T430 358T483 313T503 236Q503 190 486 158T437 106T363 77T270 68Z" />
<glyph unicode="%" horiz-adv-x="966" d="M186 0L688 686H785L281 0H186ZM252 337Q202 337 165 353T109 409T89 517Q89 587 108 626T165 681T252 698Q303 698 339 682T394 626T414 517Q414 448 395 409T339 353T252 337ZM252 411Q293 411 306 438T319 511V524Q319
554 314 576T294 611T252 624Q212 624 199 597T185 524V511Q185 465 198 438T252 411ZM716 -12Q666 -12 630 4T574 60T554 168Q554 238 573 277T629 332T716 349Q767 349 803 333T859 277T878 168Q878 99 859 60T804 4T716 -12ZM716 62Q757 62 770 89T783 163V175Q783
205 778 227T758 262T716 275Q676 275 663 248T650 175V163Q650 117 663 90T716 62Z" />
<glyph unicode="&amp;" horiz-adv-x="729" d="M326 -12Q246 -12 185 11T88 79T53 184Q53 255 91 295T188 352V356Q137 378 103 412T69 510Q69 571 102 613T196 676T337 698Q414 698 472 675T563 610T596 510V485H474V501Q474 534 458 555T410 587T335 598Q302
598 276 592T231 572T204 540T194 496Q194 464 210 442T254 409T312 398H379V298H315Q280 298 249 290T198 259T179 195Q179 158 197 135T248 100T329 88Q378 88 410 100T458 138T474 198V398H688V298H596V201Q596 137 566 89T475 15T326 -12Z" />
<glyph unicode="&apos;" horiz-adv-x="246" d="M78 407L62 539V686H190V539L167 407H78Z" />
<glyph unicode="(" horiz-adv-x="357" d="M234 -157Q152 -64 108 51T64 291Q64 413 108 529T234 736H313Q275 675 244 602T196 449T178 291Q178 213 195 133T244 -22T313 -157H234Z" />
<glyph unicode=")" horiz-adv-x="357" d="M123 735Q206 642 249 527T293 287Q293 165 250 50T123 -158H44Q83 -97 113 -24T161 129T179 287Q179 366 162 446T114 600T44 735H123Z" />
<glyph unicode="*" horiz-adv-x="407" d="M166 329L177 462L73 386L35 452L150 508L35 565L73 630L177 554L166 687H241L230 554L334 630L372 565L256 508L372 452L334 386L230 462L241 329H166Z" />
<glyph unicode="+" horiz-adv-x="636" d="M269 0V206H82V304H269V511H366V304H554V206H366V0H269Z" />
<glyph unicode="," horiz-adv-x="300" d="M79 -163V-112Q104 -108 119 -92T141 -52T149 0H87V128H213V11Q213 -47 195 -83T146 -137T79 -163Z" />
<glyph unicode="-" horiz-adv-x="333" d="M40 214V326H293V214H40Z" />
<glyph unicode="." horiz-adv-x="300" d="M86 0V128H213V0H86Z" />
<glyph unicode="/" horiz-adv-x="298" d="M0 -49L210 735H298L88 -49H0Z" />
<glyph unicode="0" d="M288 -12Q232 -12 188 4T113 61T66 169T50 343Q50 448 66 516T113 625T188 681T288 698Q344 698 387 682T462 625T509 517T525 343Q525 238 509 170T462 61T388 5T288 -12ZM288 88Q335 88 358 113T390 189T399 315V367Q399 444 391 495T359
572T288 598Q242 598 218 573T185 497T176 370V318Q176 242 184 191T217 114T288 88Z" />
<glyph unicode="1" horiz-adv-x="576" d="M98 0V100H263V532H97V607Q127 610 167 621T250 650T326 686H386V100H538V0H98Z" />
<glyph unicode="2" horiz-adv-x="576" d="M51 0V33Q51 78 67 115T110 182T170 240T238 293Q280 324 317 355T377 423T400 505Q400 526 390 547T358 582T297 596Q259 596 234 584T197 548T184 491V450H62Q61 455 60 465T59 490Q59 564 92 609T181 676T302 698Q370
698 413 678T481 627T515 561T525 497Q525 449 509 410T463 336T395 270T310 206Q287 190 265 174T227 142T201 110H529V0H51Z" />
<glyph unicode="3" horiz-adv-x="576" d="M290 -12Q211 -12 156 13T73 85T44 194V209H168V191Q168 141 199 115T286 88Q339 88 371 113T403 193Q403 236 386 258T340 290T278 299H221V399H281Q311 399 335 410T374 444T389 502Q389 536 376 557T340 588T288 598Q257
598 233 588T196 556T183 501V485H59V510Q59 567 88 609T168 675T286 698Q354 698 405 677T486 613T515 510Q515 470 501 441T461 391T405 356V352Q458 336 493 294T529 184Q529 123 499 79T414 12T290 -12Z" />
<glyph unicode="4" horiz-adv-x="577" d="M333 0V153H31V253Q71 319 105 389T167 536T215 698H343Q330 645 310 589T266 480T218 382T174 303T141 253H333V426Q342 445 351 466T368 510T384 554T397 596H455V253H540V153H455V0H333Z" />
<glyph unicode="5" d="M287 -12Q215 -12 161 15T76 92T46 213H172Q172 175 186 147T226 103T287 88Q321 88 346 103T385 148T400 224Q400 266 386 293T347 334T290 348Q266 348 246 340T211 320T185 291L69 306L97 686H491V575H203L192 406Q206 416 224 425T266
440T323 446Q380 446 426 422T499 349T526 224Q526 149 497 96T415 16T287 -12Z" />
<glyph unicode="6" horiz-adv-x="576" d="M303 -12Q244 -12 198 5T118 60T68 163T51 323Q51 430 67 502T115 617T193 679T298 698Q373 698 420 670T489 593T511 484H387Q387 520 378 545T347 584T293 598Q244 598 219 572T186 496T176 379Q182 387 201 401T253
428T326 440Q398 440 444 411T512 330T534 214Q534 145 504 94T422 16T303 -12ZM297 88Q335 88 359 105T396 151T408 215Q408 252 396 280T360 325T297 342Q259 342 234 326T197 281T185 214Q185 179 197 150T234 105T297 88Z" />
<glyph unicode="7" horiz-adv-x="576" d="M147 0Q147 84 167 164T223 319T301 458T389 575H46V686H536V606Q502 565 466 516T397 412T337 298T295 177T279 51V0H147Z" />
<glyph unicode="8" horiz-adv-x="576" d="M288 -12Q202 -12 148 15T69 87T44 188Q44 244 70 286T155 352Q108 377 85 417T62 507Q62 560 87 603T162 672T288 698Q363 698 413 672T488 603T514 507Q514 458 491 418T420 352Q479 329 505 287T531 188Q531 133 506
88T428 15T288 -12ZM288 87Q345 87 375 115T405 194Q405 245 375 273T288 301Q231 301 201 273T170 194Q170 144 200 116T288 87ZM288 400Q336 400 363 425T391 499Q391 546 364 572T288 599Q239 599 212 573T185 499Q185 451 212 426T288 400Z" />
<glyph unicode="9" d="M278 -12Q203 -12 156 16T87 93T65 202H189Q189 166 198 141T229 102T283 88Q332 88 356 114T389 190T399 307Q394 300 375 285T324 258T251 246Q179 246 133 275T65 356T42 472Q42 542 72 592T154 670T272 698Q331 698 378 681T458 626T508
523T525 363Q525 257 509 185T461 69T383 7T278 -12ZM279 344Q317 344 342 360T379 406T391 472Q391 508 379 536T342 581T279 598Q241 598 217 581T180 536T168 471Q168 434 180 406T216 361T279 344Z" />
<glyph unicode=":" horiz-adv-x="336" d="M105 398V526H231V398H105ZM105 0V128H231V0H105Z" />
<glyph unicode=";" horiz-adv-x="336" d="M99 -163V-112Q123 -108 138 -92T161 -52T169 0H107V128H233V11Q233 -47 215 -83T166 -137T99 -163ZM107 398V526H233V398H107Z" />
<glyph unicode="&lt;" horiz-adv-x="636" d="M545 3L71 199V320L545 517V407L166 260L545 112V3Z" />
<glyph unicode="=" horiz-adv-x="636" d="M82 311V409H554V311H82ZM82 99V196H554V99H82Z" />
<glyph unicode="&gt;" horiz-adv-x="636" d="M91 3V112L470 260L91 407V517L565 320V199L91 3Z" />
<glyph unicode="?" horiz-adv-x="613" d="M244 192V239Q244 280 256 308T286 356T326 392T365 424T396 459T408 504Q408 514 405 528T392 557T361 580T304 590Q267 590 245 579T211 552T196 518T192 486Q192 479 192 473T193 459H69Q68 464 67 472T65 494Q65 528
75 558T104 614T154 658T223 687T313 698Q354 698 389 691T452 669T499 633T529 583T540 520Q540 474 527 442T493 388T449 348T405 313T371 275T358 224V192H244ZM238 0V128H364V0H238Z" />
<glyph unicode="@" horiz-adv-x="998" d="M474 -153Q342 -153 246 -110T97 26T45 262Q45 382 82 465T184 599T333 674T513 698Q608 698 688 677T827 610T920 494T953 321Q953 253 938 203T899 118T843 62T780 32T718 22Q674 22 650 35T614 63T601 84H596Q580 65
559 51T510 29T445 21Q425 21 400 26T351 44T312 85T296 155Q296 204 317 236T378 287T472 314T590 322V362Q590 382 584 398T562 424T512 434Q480 434 462 426T436 406T429 381V368H321Q320 373 320 377T320 388Q320 429 344 459T411 505T512 521Q577 521 618
504T680 453T701 371V146Q701 123 713 114T744 105Q774 105 803 124T851 191T871 322Q871 429 825 496T699 594T512 626Q393 626 307 586T173 465T126 261Q126 90 211 5T474 -81Q501 -81 537 -77T608 -65T664 -49V-126Q640 -134 605 -140T535 -149T474 -153ZM479
109Q508 109 528 117T563 141T583 178T590 227V244Q541 244 500 238T434 215T409 166Q409 148 416 136T439 116T479 109Z" />
<glyph unicode="A" horiz-adv-x="709" d="M5 0L272 686H436L704 0H563L508 146H194L139 0H5ZM235 256H466L397 442Q393 452 388 467T376 501T364 539T353 573H348Q342 553 334 527T317 478T304 442L235 256Z" />
<glyph unicode="B" horiz-adv-x="706" d="M76 0V686H450Q505 686 548 665T617 606T642 517Q642 478 627 446T587 393T529 360V356Q567 348 597 326T644 269T661 189Q661 125 633 83T557 21T450 0H76ZM206 111H433Q474 111 500 133T527 204Q527 232 516 253T483
285T425 297H206V111ZM206 406H416Q446 406 466 417T497 447T508 489Q508 533 485 554T423 575H206V406Z" />
<glyph unicode="C" horiz-adv-x="721" d="M378 -12Q273 -12 199 25T85 140T45 343Q45 524 133 611T378 698Q463 698 531 669T640 582T681 433H548Q548 483 527 517T467 570T380 588Q312 588 267 562T201 483T179 354V332Q179 254 200 202T266 124T380 98Q432 98
471 115T531 167T553 252H681Q681 162 641 104T533 17T378 -12Z" />
<glyph unicode="D" horiz-adv-x="728" d="M76 0V686H351Q455 686 529 649T643 537T683 343Q683 226 643 150T529 37T351 0H76ZM206 111H351Q399 111 436 125T498 166T536 235T549 332V353Q549 409 536 450T498 519T436 561T351 575H206V111Z" />
<glyph unicode="E" horiz-adv-x="672" d="M76 0V686H611V575H206V406H567V295H206V111H617V0H76Z" />
<glyph unicode="F" horiz-adv-x="609" d="M76 0V686H569V575H206V391H533V280H206V0H76Z" />
<glyph unicode="G" horiz-adv-x="794" d="M388 -12Q229 -12 141 73T53 343Q53 464 94 542T214 659T403 698Q469 698 527 683T629 638T699 561T724 452H590Q590 485 576 510T536 553T477 579T407 588Q352 588 311 574T242 530T201 456T187 353V332Q187 251 210
199T279 123T395 98Q454 98 498 116T568 168T594 253V260H375V368H724V0H631L620 76Q590 46 556 27T481 -2T388 -12Z" />
<glyph unicode="H" horiz-adv-x="732" d="M76 0V686H206V407H526V686H656V0H526V295H206V0H76Z" />
<glyph unicode="I" horiz-adv-x="282" d="M76 0V686H206V0H76Z" />
<glyph unicode="J" horiz-adv-x="585" d="M275 -12Q199 -12 146 11T64 78T36 190V228H165V190Q165 145 192 122T275 98Q328 98 355 134T382 235V686H513V235Q513 153 485 98T404 16T275 -12Z" />
<glyph unicode="K" horiz-adv-x="695" d="M76 0V686H206V368L510 686H669L403 408L674 0H520L315 317L206 221V0H76Z" />
<glyph unicode="L" horiz-adv-x="570" d="M76 0V686H206V113H550V0H76Z" />
<glyph unicode="M" horiz-adv-x="844" d="M76 0V686H281L389 304Q395 284 401 259T412 211T421 171H429Q431 186 435 208T444 255T457 305L565 686H768V0H638V347Q638 393 639 439T641 518T643 557H635Q633 548 625 518T608 453T592 393L479 0H359L246 392Q240
413 233 442T218 503T204 557H196Q197 530 198 493T200 417T201 347V0H76Z" />
<glyph unicode="N" horiz-adv-x="732" d="M76 0V686H200L493 281Q498 275 505 265T518 244T526 228H531Q531 242 531 255T531 281V686H656V0H533L239 408Q231 420 221 437T206 462H201Q201 449 201 436T201 408V0H76Z" />
<glyph unicode="O" horiz-adv-x="782" d="M391 -12Q284 -12 206 26T87 144T45 343Q45 464 86 542T206 659T391 698Q499 698 576 660T695 543T737 343Q737 223 696 144T577 27T391 -12ZM391 98Q443 98 482 113T549 157T590 230T604 331V353Q604 411 590 455T549
528T483 573T391 588Q339 588 300 573T233 529T193 455T179 353V331Q179 274 192 231T233 158T299 113T391 98Z" />
<glyph unicode="P" horiz-adv-x="670" d="M76 0V686H420Q496 686 545 659T620 583T645 466Q645 399 619 349T542 272T413 244H206V0H76ZM206 355H409Q459 355 486 384T514 466Q514 501 502 525T467 562T409 575H206V355Z" />
<glyph unicode="Q" horiz-adv-x="782" d="M538 -130L424 -11Q416 -12 408 -12T391 -12Q284 -12 206 26T87 144T45 343Q45 464 86 542T206 659T391 698Q499 698 576 660T695 543T737 343Q737 216 691 136T559 18L712 -130H538ZM391 98Q443 98 482 113T549 157T590
230T604 331V353Q604 411 590 455T549 528T483 573T391 588Q339 588 300 573T233 529T193 455T179 353V331Q179 274 192 231T233 158T299 113T391 98Z" />
<glyph unicode="R" horiz-adv-x="717" d="M76 0V686H437Q513 686 563 660T638 586T663 473Q663 406 633 355T545 277L687 0H545L419 255H206V0H76ZM206 364H427Q477 364 504 393T531 473Q531 506 519 528T484 563T427 575H206V364Z" />
<glyph unicode="S" horiz-adv-x="667" d="M332 -12Q275 -12 223 0T131 39T68 105T45 199Q45 205 45 211T46 220H177Q177 218 177 213T176 203Q176 170 195 147T250 111T335 98Q368 98 393 102T437 113T468 131T485 155T491 183Q491 212 473 231T425 263T356 286T277
308T198 334T129 372T80 427T62 508Q62 556 82 592T140 651T228 686T337 698Q392 698 440 687T526 651T584 589T605 499V487H476V497Q476 526 459 546T410 577T336 588Q291 588 259 580T210 555T193 514Q193 489 211 472T259 443T328 421T407 400T486 373T555 336T604
280T622 201Q622 124 585 77T482 9T332 -12Z" />
<glyph unicode="T" horiz-adv-x="619" d="M244 0V574H25V686H594V574H374V0H244Z" />
<glyph unicode="U" horiz-adv-x="724" d="M361 -12Q271 -12 206 17T107 105T72 254V686H202V258Q202 179 243 139T361 98Q437 98 479 138T522 258V686H652V254Q652 165 617 106T517 17T361 -12Z" />
<glyph unicode="V" horiz-adv-x="671" d="M260 0L10 686H151L314 214Q318 204 322 191T330 167T337 146H342Q345 154 348 165T356 188T364 213L526 686H661L411 0H260Z" />
<glyph unicode="W" horiz-adv-x="954" d="M196 0L10 686H148L259 245Q262 235 265 218T271 181T276 147H281Q283 159 284 173T288 201T293 226T296 245L399 686H566L669 245Q672 235 675 218T681 181T686 147H691Q693 158 695 171T700 198T706 224T711 245L822
686H944L757 0H608L497 450Q494 464 491 482T485 519T480 552H476Q475 537 473 518T467 480T461 450L351 0H196Z" />
<glyph unicode="X" horiz-adv-x="686" d="M11 0L258 360L34 686H193L345 457H350L502 686H651L427 361L675 0H517L341 265H335L161 0H11Z" />
<glyph unicode="Y" horiz-adv-x="677" d="M274 0V279L10 686H160L341 396H346L525 686H667L404 279V0H274Z" />
<glyph unicode="Z" horiz-adv-x="634" d="M29 0V62L395 575H55V686H588V623L222 111H597V0H29Z" />
<glyph unicode="[" horiz-adv-x="339" d="M109 -161V735H316V649H213V-75H316V-161H109Z" />
<glyph unicode="\" horiz-adv-x="298" d="M298 -49H210L0 735H88L298 -49Z" />
<glyph unicode="]" horiz-adv-x="339" d="M230 735V-161H23V-75H126V649H23V735H230Z" />
<glyph unicode="^" horiz-adv-x="636" d="M108 294L264 686H371L528 294H424L317 578L212 294H108Z" />
<glyph unicode="_" horiz-adv-x="507" d="M0 -149V-65H507V-149H0Z" />
<glyph unicode="`" horiz-adv-x="209" d="M209 591H108L0 720L1 723H128L209 591Z" />
<glyph unicode="a" horiz-adv-x="556" d="M200 -12Q178 -12 150 -7T95 14T51 58T34 136Q34 190 58 225T125 281T229 310T362 319V362Q362 385 355 403T330 431T274 442Q237 442 216 433T187 411T179 384V370H61Q60 375 60 380T60 392Q60 437 87 470T162 520T273
538Q345 538 391 518T461 461T484 371V123Q484 104 495 96T519 88H551V4Q541 0 522 -5T475 -11Q449 -11 429 -3T394 22T374 60H368Q351 39 328 23T273 -3T200 -12ZM237 88Q267 88 290 97T329 122T353 161T362 211V235Q307 235 261 228T187 202T159 148Q159 130
167 117T193 96T237 88Z" />
<glyph unicode="b" horiz-adv-x="592" d="M344 -12Q293 -12 251 8T183 70H176L166 0H65V723H187V465H193Q209 489 232 505T285 530T351 538Q410 538 455 509T527 420T553 264Q553 168 528 107T456 17T344 -12ZM306 93Q351 93 377 110T415 164T427 255V269Q427
325 416 361T378 415T306 433Q275 433 253 422T216 390T194 338T187 268V255Q187 203 199 167T238 112T306 93Z" />
<glyph unicode="c" horiz-adv-x="547" d="M284 -12Q202 -12 148 17T66 108T39 263Q39 358 66 418T148 508T284 538Q337 538 378 525T448 486T493 420T508 329H384Q384 366 373 390T340 426T282 439Q241 439 215 420T177 364T164 269V256Q164 200 176 162T216 106T287
87Q321 87 343 99T378 137T390 197H508Q508 148 493 109T449 43T379 2T284 -12Z" />
<glyph unicode="d" horiz-adv-x="592" d="M248 -12Q184 -12 137 17T65 107T39 264Q39 359 65 419T137 509T241 538Q277 538 307 530T360 506T399 465H405V723H527V0H426L416 70H409Q384 29 342 9T248 -12ZM286 93Q328 93 354 112T392 167T405 255V268Q405 307
398 338T377 390T340 422T286 433Q241 433 215 416T177 362T165 269V255Q165 200 176 164T214 111T286 93Z" />
<glyph unicode="e" horiz-adv-x="561" d="M291 -12Q207 -12 151 17T67 108T39 263Q39 358 67 418T151 508T291 538Q367 538 418 510T496 422T522 269V233H164Q166 184 179 151T219 101T292 84Q315 84 335 90T370 108T393 140T402 184H522Q522 134 505 97T456 36T382
0T291 -12ZM166 319H395Q395 352 388 375T367 413T334 434T291 441Q252 441 226 428T185 388T166 319Z" />
<glyph unicode="f" horiz-adv-x="307" d="M90 0V426H14V526H90V593Q90 628 101 659T142 711T223 731Q238 731 253 729T283 724T307 716V631H257Q235 631 224 620T212 586V526H307V426H212V0H90Z" />
<glyph unicode="g" horiz-adv-x="591" d="M152 -182Q117 -182 86 -168T36 -127T17 -59Q17 -15 42 10T99 49Q76 61 62 81T47 129Q47 167 75 189T139 219Q102 242 83 278T63 360Q63 415 89 454T167 516T290 538Q319 538 346 534T395 522Q430 543 443 569T457 613H576Q576
578 563 551T525 507T467 481Q492 459 505 428T518 360Q518 305 493 265T418 203T296 181H215Q194 181 183 172T171 147Q171 134 181 124T211 114H441Q500 114 538 76T577 -23Q577 -68 554 -104T488 -161T390 -182H152ZM196 -94H389Q408 -94 422 -88T445 -69T454
-42Q454 -16 438 -3T397 10H196Q172 10 156 -4T140 -42Q140 -65 155 -79T196 -94ZM291 267Q344 267 370 291T397 360Q397 404 371 428T291 452Q238 452 212 428T185 360Q185 331 196 310T231 278T291 267Z" />
<glyph unicode="h" horiz-adv-x="584" d="M65 0V723H187V466H194Q211 487 234 503T286 528T352 538Q402 538 440 520T501 462T523 355V0H400V333Q400 361 394 379T375 409T344 426T304 431Q271 431 245 415T203 371T187 306V0H65Z" />
<glyph unicode="i" horiz-adv-x="252" d="M65 607V723H187V607H65ZM65 0V526H187V0H65Z" />
<glyph unicode="j" horiz-adv-x="250" d="M65 607V723H187V607H65ZM57 -182Q43 -182 27 -180T-4 -175T-29 -167V-83H21Q42 -83 53 -72T65 -38V526H187V-47Q187 -80 176 -111T136 -162T57 -182Z" />
<glyph unicode="k" horiz-adv-x="543" d="M65 0V723H187V302L376 526H519L343 322L529 0H389L265 233L187 158V0H65Z" />
<glyph unicode="l" horiz-adv-x="252" d="M65 0V723H187V0H65Z" />
<glyph unicode="m" horiz-adv-x="861" d="M65 0V526H167L177 456H184Q201 480 223 498T273 527T336 538Q382 538 418 519T474 456H481Q498 480 521 498T574 527T639 538Q686 538 722 521T779 465T800 361V0H678V336Q678 363 672 381T656 410T630 426T596 431Q567
431 544 415T508 371T494 306V0H372V336Q372 363 366 381T350 410T324 426T290 431Q261 431 238 415T201 371T187 306V0H65Z" />
<glyph unicode="n" horiz-adv-x="584" d="M65 0V526H167L177 456H184Q202 480 226 498T282 527T352 538Q402 538 440 520T501 462T523 355V0H400V333Q400 361 394 379T375 409T344 426T304 431Q271 431 245 415T203 371T187 306V0H65Z" />
<glyph unicode="o" horiz-adv-x="598" d="M299 -12Q213 -12 155 17T68 108T39 263Q39 358 68 418T155 508T299 538Q386 538 443 509T530 419T559 263Q559 169 530 108T444 18T299 -12ZM299 88Q347 88 376 106T419 162T433 256V270Q433 326 420 363T377 419T299
438Q251 438 222 420T179 364T165 270V256Q165 200 178 163T221 107T299 88Z" />
<glyph unicode="p" horiz-adv-x="592" d="M65 -173V526H166L176 456H183Q209 497 251 517T344 538Q409 538 455 509T527 419T553 262Q553 168 527 107T456 17T351 -12Q315 -12 285 -4T232 20T193 61H187V-173H65ZM306 93Q351 93 377 110T415 164T427 255V269Q427
325 416 361T378 415T306 433Q265 433 239 414T200 359T187 269V257Q187 218 194 188T215 136T252 104T306 93Z" />
<glyph unicode="q" horiz-adv-x="592" d="M405 -173V61H399Q383 37 360 21T307 -4T241 -12Q183 -12 137 17T65 107T39 262Q39 358 64 419T137 509T248 538Q299 538 341 518T409 456H416L426 526H527V-173H405ZM286 93Q318 93 340 104T377 136T398 187T405 257V269Q405
322 393 358T354 414T286 433Q241 433 215 416T177 362T165 269V255Q165 200 176 164T214 111T286 93Z" />
<glyph unicode="r" horiz-adv-x="362" d="M65 0V526H167L177 443H184Q194 468 208 489T246 524T302 538Q318 538 331 535T352 529V414H315Q284 414 260 406T220 379T195 334T187 271V0H65Z" />
<glyph unicode="s" horiz-adv-x="541" d="M270 -12Q213 -12 170 0T98 35T55 86T40 151Q40 156 40 160T41 166H161Q161 164 161 162T161 158Q162 131 178 115T220 91T275 84Q301 84 324 89T363 107T379 140Q379 166 359 180T307 203T237 222Q204 231 171 242T112
270T69 314T52 381Q52 420 69 449T116 497T187 527T276 537Q323 537 361 527T428 499T472 454T488 395Q488 388 488 381T487 373H368V380Q368 399 357 412T324 434T270 442Q246 442 228 438T199 427T181 411T175 391Q175 372 190 361T230 342T286 325Q322 315 360
305T430 278T483 233T503 156Q503 110 486 78T437 26T363 -3T270 -12Z" />
<glyph unicode="t" horiz-adv-x="314" d="M204 -12Q155 -12 127 7T88 57T76 120V426H13V526H79L101 673H198V526H289V426H198V132Q198 111 209 100T242 88H289V4Q279 0 265 -3T234 -9T204 -12Z" />
<glyph unicode="u" horiz-adv-x="583" d="M232 -12Q156 -12 109 29T61 171V526H183V193Q183 165 189 147T208 117T239 100T279 95Q312 95 338 111T380 155T396 220V526H518V0H417L407 70H400Q382 46 358 28T302 -1T232 -12Z" />
<glyph unicode="v" horiz-adv-x="529" d="M200 0L5 526H133L218 289Q224 272 232 244T250 185T265 129H270Q276 152 284 182T300 241T316 289L400 526H524L328 0H200Z" />
<glyph unicode="w" horiz-adv-x="758" d="M160 0L3 526H129L202 240Q208 218 212 197T219 160T223 142H229Q233 160 237 181T244 219T249 243L317 526H448L519 242Q523 228 526 210T534 173T540 142H546Q548 154 551 171T559 206T566 239L638 526H755L599 0H470L410
251Q406 270 401 294T391 342T383 383H377Q377 376 374 358T366 313T351 251L289 0H160Z" />
<glyph unicode="x" horiz-adv-x="546" d="M10 0L198 271L23 526H171L275 363H281L387 526H526L350 274L536 0H390L273 182H267L149 0H10Z" />
<glyph unicode="y" horiz-adv-x="529" d="M135 -182Q98 -182 75 -177T49 -170V-83H105Q126 -83 147 -72T185 -42T210 0L5 526H133L231 274Q238 257 245 231T261 178T274 128H279Q283 143 288 162T298 201T310 240T320 273L400 526H524L348 27Q333 -15 315 -53T272
-120T214 -165T135 -182Z" />
<glyph unicode="z" horiz-adv-x="509" d="M24 0V57L290 426H41V526H468V470L201 100H479V0H24Z" />
<glyph unicode="{" horiz-adv-x="394" d="M338 -159Q293 -159 256 -154T191 -133T150 -88T135 -11V183Q135 206 121 219T86 237T43 243V333Q65 333 86 338T121 357T135 393V587Q135 634 149 663T191 708T255 729T338 735V664Q317 664 295 659T258 641T241 600L234
401Q233 350 207 322T118 293V283Q160 283 185 270T221 233T234 175L241 -24Q242 -50 257 -64T294 -83T338 -88V-159Z" />
<glyph unicode="|" horiz-adv-x="245" d="M76 -192V723H169V-192H76Z" />
<glyph unicode="}" horiz-adv-x="394" d="M56 735Q101 735 138 730T203 709T244 664T259 587V393Q259 371 273 358T308 339T351 333V243Q330 243 309 238T273 219T259 183V-11Q259 -58 245 -87T203 -132T139 -153T56 -159V-88Q77 -88 99 -83T136 -64T153 -24L160
175Q162 226 187 254T276 283V293Q234 293 209 306T173 343T160 401L153 600Q152 627 137 640T101 659T56 664V735Z" />
<glyph unicode="~" horiz-adv-x="636" d="M67 203V314Q78 330 98 346T148 374T212 386Q241 386 266 377T317 356T368 335T424 326Q455 326 483 337T533 366T569 398V287Q559 272 538 255T489 227T424 215Q396 215 370 224T319 245T268 266T212 275Q181 275 153
264T103 236T67 203Z" />
<glyph unicode="&#xa0;" horiz-adv-x="200" />
<glyph unicode="&#xa1;" horiz-adv-x="292" d="M75 -161L108 336H184L217 -161H75ZM83 397V525H210V397H83Z" />
<glyph unicode="&#xa2;" horiz-adv-x="577" d="M269 -49V723H320V-49H269ZM296 68Q214 68 160 97T78 188T51 343Q51 438 78 498T160 588T296 618Q349 618 390 605T460 566T505 500T520 409H396Q396 446 385 470T352 506T294 519Q253 519 227 500T189 444T176 349V336Q176
280 188 242T228 186T299 167Q333 167 355 179T390 217T402 277H520Q520 228 505 189T461 123T391 82T296 68Z" />
<glyph unicode="&#xa3;" horiz-adv-x="580" d="M37 0V102H103V289H24V389H103V499Q103 566 128 610T202 676T317 698Q382 698 429 677T503 614T530 504V491H408V508Q408 537 397 557T366 587T317 598Q288 598 268 588T237 559T226 513V389H385V289H225L213 102H524V0H37Z" />
<glyph unicode="&#xa4;" horiz-adv-x="580" d="M84 99L39 144L93 200Q68 232 56 271T43 351Q43 392 55 432T93 501L38 555L86 603L143 547Q172 572 210 585T288 598Q328 598 366 585T433 547L490 603L538 555L483 501Q509 472 521 432T533 351Q533 310 521 271T483
200L537 144L492 99L437 157Q407 129 368 116T288 102Q248 102 209 115T139 157L84 99ZM288 181Q334 181 370 204T429 267T451 351Q451 396 429 434T370 495T288 519Q243 519 206 496T147 434T125 351Q125 306 147 267T206 205T288 181Z" />
<glyph unicode="&#xa5;" horiz-adv-x="572" d="M227 0V150H35V226H227V296H35V372H189Q184 382 173 400T150 437L10 686H150L250 492Q259 475 266 460T280 432T290 411H295Q299 419 305 432T318 461T334 492L430 686H562L430 446Q417 424 405 404T387 372H538V296H349V226H538V150H349V0H227Z"
/>
<glyph unicode="&#xa6;" horiz-adv-x="245" d="M76 345V723H169V345H76ZM76 -192V186H169V-192H76Z" />
<glyph unicode="&#xa7;" horiz-adv-x="579" d="M283 -182Q236 -182 197 -172T130 -143T86 -98T70 -39Q70 -31 70 -25T71 -17H196V-21Q196 -36 201 -48T219 -68T248 -81T290 -86Q324 -86 344 -77T375 -53T385 -22Q385 1 367 18T320 50T255 79T184 110T120 149T72
203T54 276Q54 304 65 328T95 373T141 410Q110 432 90 463T70 541Q70 580 86 609T133 658T205 688T297 698Q344 698 383 688T450 659T494 614T510 555Q510 548 510 541T509 533H384V538Q384 552 378 563T361 583T332 596T290 601Q256 601 235 592T205 569T195 538Q195
515 213 498T260 466T325 437T396 406T460 367T508 313T526 240Q526 212 515 188T485 143T439 106Q470 84 490 52T510 -25Q510 -64 494 -93T447 -142T375 -172T283 -182ZM360 150Q380 162 393 178T406 214Q406 246 390 268T347 306T286 336T218 365Q199 353 187
337T174 301Q174 270 190 247T233 207T293 177T360 150Z" />
<glyph unicode="&#xa8;" horiz-adv-x="313" d="M0 612V723H109V612H0ZM203 612V723H313V612H203Z" />
<glyph unicode="&#xa9;" horiz-adv-x="764" d="M382 -12Q305 -12 240 14T128 88T54 201T27 343Q27 420 53 485T127 597T240 671T382 698Q459 698 524 672T636 598T710 485T737 343Q737 266 711 201T637 89T524 15T382 -12ZM382 132Q321 132 282 154T223 223T204
342Q204 414 223 460T281 529T382 552Q439 552 474 534T525 479T541 389H466Q466 424 459 446T433 478T382 489Q329 489 305 455T280 352V332Q280 284 291 254T324 209T382 195Q414 195 433 206T461 240T470 295H541Q541 252 525 215T475 155T382 132ZM382 45Q468
45 534 83T639 189T677 343Q677 429 639 496T535 601T382 640Q296 640 229 602T124 496T86 343Q86 257 124 190T229 84T382 45Z" />
<glyph unicode="&#xaa;" horiz-adv-x="397" d="M143 330Q124 330 100 337T57 366T38 429Q38 465 53 489T95 526T160 546T242 552V584Q242 598 238 609T223 628T189 636Q167 636 155 630T137 614T132 595V584H55Q54 586 54 591T54 600Q54 646 91 672T188 698Q233
698 262 685T306 648T320 589V419Q320 406 327 401T342 395H363V341Q357 338 345 335T315 332Q293 332 275 343T249 377H245Q229 356 205 343T143 330ZM166 393Q190 393 207 404T233 434T242 477V495Q209 496 181 491T136 473T119 436Q119 423 124 414T139 399T166
393Z" />
<glyph unicode="&#xab;" horiz-adv-x="571" d="M210 126L68 326L210 526H301L186 326L301 126H210ZM425 126L283 326L425 526H516L401 326L516 126H425Z" />
<glyph unicode="&#xac;" horiz-adv-x="636" d="M465 194V358H67V454H559V194H465Z" />
<glyph unicode="&#xad;" horiz-adv-x="333" d="M40 214V326H293V214H40Z" />
<glyph unicode="&#xae;" horiz-adv-x="764" d="M382 -12Q305 -12 240 14T128 88T54 201T27 343Q27 420 53 485T127 597T240 671T382 698Q459 698 524 672T636 598T710 485T737 343Q737 266 711 201T637 89T524 15T382 -12ZM382 45Q468 45 534 83T639 189T677 343Q677
429 639 496T535 601T382 640Q296 640 229 602T124 496T86 343Q86 257 124 190T229 84T382 45ZM235 138V550H427Q491 550 523 516T555 425Q555 385 538 355T485 308L572 138H491L413 295H310V138H235ZM310 359H417Q444 359 461 376T479 425Q479 456 463 471T417
487H310V359Z" />
<glyph unicode="&#xaf;" horiz-adv-x="305" d="M0 617V700H305V617H0Z" />
<glyph unicode="&#xb0;" horiz-adv-x="400" d="M200 399Q159 399 125 419T71 473T51 548Q51 590 71 624T125 678T200 698Q242 698 276 678T330 624T350 548Q350 507 330 473T276 419T200 399ZM200 472Q232 472 254 494T276 548Q276 580 254 602T200 624Q169 624
147 602T124 548Q124 517 146 495T200 472Z" />
<glyph unicode="&#xb1;" horiz-adv-x="636" d="M269 142V348H82V446H269V653H366V446H554V348H366V142H269ZM82 0V98H554V0H82Z" />
<glyph unicode="&#xb2;" horiz-adv-x="357" d="M51 440V465Q51 495 64 517T99 558T144 593Q176 617 201 640T227 695Q227 709 217 722T182 735Q165 735 154 730T138 714T132 688V668H57Q56 672 55 679T54 695Q54 732 72 755T120 789T185 800Q233 800 258 782T294
739T304 692Q304 665 295 644T271 606T237 575T199 547Q186 537 173 528T149 509H306V440H51Z" />
<glyph unicode="&#xb3;" horiz-adv-x="357" d="M178 428Q115 428 81 458T47 539V547H124V537Q124 515 137 504T176 492Q192 492 203 497T221 512T228 538Q228 557 221 566T200 580T172 584H141V650H174Q188 650 198 654T215 669T221 694Q221 709 216 718T200 731T177
736Q164 736 154 732T137 718T131 694V684H54V698Q54 729 70 752T113 787T176 800Q213 800 240 788T283 754T299 698Q299 670 285 652T246 622V618Q274 608 290 587T306 533Q306 501 290 477T245 441T178 428Z" />
<glyph unicode="&#xb4;" horiz-adv-x="209" d="M0 591L81 723H208L209 720L101 591H0Z" />
<glyph unicode="&#xb5;" horiz-adv-x="587" d="M65 -185V526H187V193Q187 165 193 147T212 117T243 100T283 95Q316 95 342 111T384 155T400 220V526H522V0H420L410 70H403Q389 44 369 26T323 -2T267 -12Q242 -12 220 -5T181 17Q185 0 186 -22T187 -68V-185H65Z" />
<glyph unicode="&#xb6;" horiz-adv-x="590" d="M260 -168V253Q205 253 156 276T76 348T45 468Q45 548 77 596T165 665T289 686H555V625H494V-168H410V625H344V-168H260Z" />
<glyph unicode="&#xb7;" horiz-adv-x="333" d="M103 293V421H230V293H103Z" />
<glyph unicode="&#xb8;" horiz-adv-x="232" d="M101 -182Q76 -182 49 -180T0 -174V-125H92Q112 -125 123 -120T135 -101Q135 -89 127 -83T94 -77H50L64 11H142L136 -34Q162 -35 184 -42T219 -64T232 -101Q232 -126 219 -142T186 -166T144 -178T101 -182Z" />
<glyph unicode="&#xb9;" horiz-adv-x="357" d="M64 440V509H148V703H64V753Q81 755 102 760T146 774T185 793H225V509H300V440H64Z" />
<glyph unicode="&#xba;" horiz-adv-x="391" d="M196 330Q143 330 107 350T52 411T34 515Q34 578 52 618T106 678T196 698Q250 698 286 679T340 619T358 515Q358 452 340 411T286 350T196 330ZM196 395Q245 395 261 427T277 509V517Q277 570 260 601T196 632Q150
632 133 602T116 519V510Q116 461 132 428T196 395Z" />
<glyph unicode="&#xbb;" horiz-adv-x="571" d="M361 526L503 326L361 126H270L385 326L270 526H361ZM146 526L288 326L146 126H55L170 326L55 526H146Z" />
<glyph unicode="&#xbc;" horiz-adv-x="855" d="M112 -12L658 698H742L196 -12H112ZM64 340V409H148V603H64V653Q81 655 102 660T146 674T185 693H225V409H300V340H64ZM657 0V74H505V134Q534 181 555 238T593 360H675Q668 328 656 295T629 232T602 177T578 139H657V197Q663
210 669 225T681 257T691 289H734V139H775V74H734V0H657Z" />
<glyph unicode="&#xbd;" horiz-adv-x="855" d="M112 -12L658 698H742L196 -12H112ZM536 0V25Q536 55 549 77T584 118T629 153Q661 177 686 200T712 255Q712 269 702 282T667 295Q650 295 639 290T623 274T617 248V228H542Q541 232 540 239T539 255Q539 292 557
315T605 349T670 360Q718 360 744 342T779 299T789 252Q789 225 780 204T756 166T722 135T684 107Q671 97 658 88T634 69H791V0H536ZM64 340V409H148V603H64V653Q81 655 102 660T146 674T185 693H225V409H300V340H64Z" />
<glyph unicode="&#xbe;" horiz-adv-x="855" d="M112 -12L658 698H742L196 -12H112ZM178 328Q115 328 81 358T47 439V447H124V437Q124 415 137 404T176 392Q192 392 203 397T221 412T228 438Q228 457 221 466T200 480T172 484H141V550H174Q188 550 198 554T215
569T221 594Q221 609 216 618T200 631T177 636Q164 636 154 632T137 618T131 594V584H54V598Q54 629 70 652T113 687T176 700Q213 700 240 688T283 654T299 598Q299 570 285 552T246 522V518Q274 508 290 487T306 433Q306 401 290 377T245 341T178 328ZM657 0V74H505V134Q534
181 555 238T593 360H675Q668 328 656 295T629 232T602 177T578 139H657V197Q663 210 669 225T681 257T691 289H734V139H775V74H734V0H657Z" />
<glyph unicode="&#xbf;" horiz-adv-x="613" d="M302 -172Q261 -172 226 -165T163 -143T116 -107T86 -57T75 6Q75 52 88 84T122 138T166 178T210 213T244 251T257 302V334H371V287Q371 247 359 219T329 170T289 134T250 102T219 68T207 22Q207 12 210 -2T223 -31T254
-54T311 -64Q348 -64 370 -53T404 -26T419 9T423 40Q423 49 423 56T422 67H546Q548 61 549 51T550 32Q550 -2 540 -32T511 -88T461 -132T392 -161T302 -172ZM251 398V526H377V398H251Z" />
<glyph unicode="&#xc0;" horiz-adv-x="709" d="M5 0L272 686H436L704 0H563L508 146H194L139 0H5ZM235 256H466L397 442Q393 452 388 467T376 501T364 539T353 573H348Q342 553 334 527T317 478T304 442L235 256ZM419 736H313L205 865L206 868H338L419 736Z" />
<glyph unicode="&#xc1;" horiz-adv-x="709" d="M5 0L272 686H436L704 0H563L508 146H194L139 0H5ZM235 256H466L397 442Q393 452 388 467T376 501T364 539T353 573H348Q342 553 334 527T317 478T304 442L235 256ZM297 736L378 868H510L511 865L403 736H297Z" />
<glyph unicode="&#xc2;" horiz-adv-x="709" d="M5 0L272 686H436L704 0H563L508 146H194L139 0H5ZM235 256H466L397 442Q393 452 388 467T376 501T364 539T353 573H348Q342 553 334 527T317 478T304 442L235 256ZM187 736L293 868H417L522 736H411L327 841L383
840L298 736H187Z" />
<glyph unicode="&#xc3;" horiz-adv-x="709" d="M5 0L272 686H436L704 0H563L508 146H194L139 0H5ZM235 256H466L397 442Q393 452 388 467T376 501T364 539T353 573H348Q342 553 334 527T317 478T304 442L235 256ZM188 756Q188 788 197 814T228 857T282 873Q308
873 330 865T375 847T420 838Q434 838 442 845T453 873H521Q521 842 512 816T482 773T427 756Q402 756 379 765T335 783T290 792Q277 792 268 784T257 756H188Z" />
<glyph unicode="&#xc4;" horiz-adv-x="709" d="M5 0L272 686H436L704 0H563L508 146H194L139 0H5ZM235 256H466L397 442Q393 452 388 467T376 501T364 539T353 573H348Q342 553 334 527T317 478T304 442L235 256ZM199 757V868H308V757H199ZM402 757V868H511V757H402Z" />
<glyph unicode="&#xc5;" horiz-adv-x="709" d="M5 0L272 686H436L704 0H563L508 146H194L139 0H5ZM235 256H466L397 442Q393 452 388 467T376 501T364 539T353 573H348Q342 553 334 527T317 478T304 442L235 256ZM355 729Q309 729 280 757T250 828Q250 872 279
900T355 928Q401 928 430 900T460 828Q460 785 431 757T355 729ZM355 785Q375 785 388 797T401 828Q401 847 388 859T355 872Q335 872 322 860T309 828Q309 809 322 797T355 785Z" />
<glyph unicode="&#xc6;" horiz-adv-x="999" d="M-5 0L331 686H938V575H534L580 406H894V295H610L660 111H944V0H557L518 147H198L129 0H-5ZM249 256H490L418 526Q417 532 415 538T412 550T409 563T405 575H400Q397 569 394 563T389 551T383 538T377 526L249 256Z" />
<glyph unicode="&#xc7;" horiz-adv-x="721" d="M378 -12Q273 -12 199 25T85 140T45 343Q45 524 133 611T378 698Q463 698 531 669T640 582T681 433H548Q548 483 527 517T467 570T380 588Q312 588 267 562T201 483T179 354V332Q179 254 200 202T266 124T380 98Q432
98 471 115T531 167T553 252H681Q681 162 641 104T533 17T378 -12ZM375 -182Q350 -182 323 -180T274 -174V-125H366Q386 -125 397 -120T409 -101Q409 -89 401 -83T368 -77H324L338 11H416L410 -34Q436 -35 458 -42T493 -64T506 -101Q506 -126 493 -142T460 -166T418
-178T375 -182Z" />
<glyph unicode="&#xc8;" horiz-adv-x="672" d="M76 0V686H611V575H206V406H567V295H206V111H617V0H76ZM410 736H304L196 865L197 868H329L410 736Z" />
<glyph unicode="&#xc9;" horiz-adv-x="672" d="M76 0V686H611V575H206V406H567V295H206V111H617V0H76ZM288 736L369 868H501L502 865L394 736H288Z" />
<glyph unicode="&#xca;" horiz-adv-x="672" d="M76 0V686H611V575H206V406H567V295H206V111H617V0H76ZM178 736L284 868H408L513 736H402L318 841L374 840L289 736H178Z" />
<glyph unicode="&#xcb;" horiz-adv-x="672" d="M76 0V686H611V575H206V406H567V295H206V111H617V0H76ZM190 757V868H299V757H190ZM393 757V868H502V757H393Z" />
<glyph unicode="&#xcc;" horiz-adv-x="282" d="M76 0V686H206V0H76ZM205 736H99L-9 865L-8 868H124L205 736Z" />
<glyph unicode="&#xcd;" horiz-adv-x="282" d="M76 0V686H206V0H76ZM83 736L164 868H296L297 865L189 736H83Z" />
<glyph unicode="&#xce;" horiz-adv-x="282" d="M76 0V686H206V0H76ZM-27 736L79 868H203L308 736H197L113 841L169 840L84 736H-27Z" />
<glyph unicode="&#xcf;" horiz-adv-x="282" d="M76 0V686H206V0H76ZM-15 757V868H94V757H-15ZM188 757V868H297V757H188Z" />
<glyph unicode="&#xd0;" horiz-adv-x="728" d="M0 298V398H372V298H0ZM76 0V686H351Q455 686 529 649T643 537T683 343Q683 226 643 150T529 37T351 0H76ZM206 111H351Q399 111 436 125T498 166T536 235T549 332V353Q549 409 536 450T498 519T436 561T351 575H206V111Z" />
<glyph unicode="&#xd1;" horiz-adv-x="732" d="M76 0V686H200L493 281Q498 275 505 265T518 244T526 228H531Q531 242 531 255T531 281V686H656V0H533L239 408Q231 420 221 437T206 462H201Q201 449 201 436T201 408V0H76ZM199 756Q199 788 208 814T239 857T293
873Q319 873 341 865T386 847T431 838Q445 838 453 845T464 873H532Q532 842 523 816T493 773T438 756Q413 756 390 765T346 783T301 792Q288 792 279 784T268 756H199Z" />
<glyph unicode="&#xd2;" horiz-adv-x="782" d="M391 -12Q284 -12 206 26T87 144T45 343Q45 464 86 542T206 659T391 698Q499 698 576 660T695 543T737 343Q737 223 696 144T577 27T391 -12ZM391 98Q443 98 482 113T549 157T590 230T604 331V353Q604 411 590 455T549
528T483 573T391 588Q339 588 300 573T233 529T193 455T179 353V331Q179 274 192 231T233 158T299 113T391 98ZM455 736H349L241 865L242 868H374L455 736Z" />
<glyph unicode="&#xd3;" horiz-adv-x="782" d="M391 -12Q284 -12 206 26T87 144T45 343Q45 464 86 542T206 659T391 698Q499 698 576 660T695 543T737 343Q737 223 696 144T577 27T391 -12ZM391 98Q443 98 482 113T549 157T590 230T604 331V353Q604 411 590 455T549
528T483 573T391 588Q339 588 300 573T233 529T193 455T179 353V331Q179 274 192 231T233 158T299 113T391 98ZM333 736L414 868H546L547 865L439 736H333Z" />
<glyph unicode="&#xd4;" horiz-adv-x="782" d="M391 -12Q284 -12 206 26T87 144T45 343Q45 464 86 542T206 659T391 698Q499 698 576 660T695 543T737 343Q737 223 696 144T577 27T391 -12ZM391 98Q443 98 482 113T549 157T590 230T604 331V353Q604 411 590 455T549
528T483 573T391 588Q339 588 300 573T233 529T193 455T179 353V331Q179 274 192 231T233 158T299 113T391 98ZM223 736L329 868H453L558 736H447L363 841L419 840L334 736H223Z" />
<glyph unicode="&#xd5;" horiz-adv-x="782" d="M391 -12Q284 -12 206 26T87 144T45 343Q45 464 86 542T206 659T391 698Q499 698 576 660T695 543T737 343Q737 223 696 144T577 27T391 -12ZM391 98Q443 98 482 113T549 157T590 230T604 331V353Q604 411 590 455T549
528T483 573T391 588Q339 588 300 573T233 529T193 455T179 353V331Q179 274 192 231T233 158T299 113T391 98ZM224 756Q224 788 233 814T264 857T318 873Q344 873 366 865T411 847T456 838Q470 838 478 845T489 873H557Q557 842 548 816T518 773T463 756Q438 756
415 765T371 783T326 792Q313 792 304 784T293 756H224Z" />
<glyph unicode="&#xd6;" horiz-adv-x="782" d="M391 -12Q284 -12 206 26T87 144T45 343Q45 464 86 542T206 659T391 698Q499 698 576 660T695 543T737 343Q737 223 696 144T577 27T391 -12ZM391 98Q443 98 482 113T549 157T590 230T604 331V353Q604 411 590 455T549
528T483 573T391 588Q339 588 300 573T233 529T193 455T179 353V331Q179 274 192 231T233 158T299 113T391 98ZM235 757V868H344V757H235ZM438 757V868H547V757H438Z" />
<glyph unicode="&#xd7;" horiz-adv-x="636" d="M172 39L103 109L249 255L103 401L171 470L318 324L465 471L534 401L386 254L533 109L464 40L318 186L172 39Z" />
<glyph unicode="&#xd8;" horiz-adv-x="782" d="M391 -12Q284 -12 206 26T87 144T45 343Q45 464 86 542T206 659T391 698Q499 698 576 660T695 543T737 343Q737 223 696 144T577 27T391 -12ZM391 98Q443 98 482 113T549 157T590 230T604 331V353Q604 411 590 455T549
528T483 573T391 588Q339 588 300 573T233 529T193 455T179 353V331Q179 274 192 231T233 158T299 113T391 98ZM48 -49L631 735H733L151 -49H48Z" />
<glyph unicode="&#xd9;" horiz-adv-x="724" d="M361 -12Q271 -12 206 17T107 105T72 254V686H202V258Q202 179 243 139T361 98Q437 98 479 138T522 258V686H652V254Q652 165 617 106T517 17T361 -12ZM426 736H320L212 865L213 868H345L426 736Z" />
<glyph unicode="&#xda;" horiz-adv-x="724" d="M361 -12Q271 -12 206 17T107 105T72 254V686H202V258Q202 179 243 139T361 98Q437 98 479 138T522 258V686H652V254Q652 165 617 106T517 17T361 -12ZM304 736L385 868H517L518 865L410 736H304Z" />
<glyph unicode="&#xdb;" horiz-adv-x="724" d="M361 -12Q271 -12 206 17T107 105T72 254V686H202V258Q202 179 243 139T361 98Q437 98 479 138T522 258V686H652V254Q652 165 617 106T517 17T361 -12ZM194 736L300 868H424L529 736H418L334 841L390 840L305 736H194Z" />
<glyph unicode="&#xdc;" horiz-adv-x="724" d="M361 -12Q271 -12 206 17T107 105T72 254V686H202V258Q202 179 243 139T361 98Q437 98 479 138T522 258V686H652V254Q652 165 617 106T517 17T361 -12ZM206 757V868H315V757H206ZM409 757V868H518V757H409Z" />
<glyph unicode="&#xdd;" horiz-adv-x="677" d="M274 0V279L10 686H160L341 396H346L525 686H667L404 279V0H274ZM281 736L362 868H494L495 865L387 736H281Z" />
<glyph unicode="&#xde;" horiz-adv-x="690" d="M81 0V686H211V575H410Q486 575 535 548T610 472T635 356Q635 288 609 238T532 161T403 133H211V0H81ZM211 244H399Q449 244 476 274T504 356Q504 390 492 414T457 451T399 464H211V244Z" />
<glyph unicode="&#xdf;" horiz-adv-x="625" d="M75 0V512Q75 572 94 614T148 683T227 722T325 735Q381 735 424 722T497 685T543 628T559 555Q559 497 528 455T446 396V392Q512 373 548 323T584 207Q584 148 557 101T479 27T362 0H264V100H350Q384 100 408 116T446
158T460 215Q460 247 447 273T408 314T347 330H264V436H342Q370 436 390 449T423 486T435 537Q435 580 407 608T322 636Q284 636 256 623T213 583T197 519V0H75Z" />
<glyph unicode="&#xe0;" horiz-adv-x="556" d="M200 -12Q178 -12 150 -7T95 14T51 58T34 136Q34 190 58 225T125 281T229 310T362 319V362Q362 385 355 403T330 431T274 442Q237 442 216 433T187 411T179 384V370H61Q60 375 60 380T60 392Q60 437 87 470T162 520T273
538Q345 538 391 518T461 461T484 371V123Q484 104 495 96T519 88H551V4Q541 0 522 -5T475 -11Q449 -11 429 -3T394 22T374 60H368Q351 39 328 23T273 -3T200 -12ZM237 88Q267 88 290 97T329 122T353 161T362 211V235Q307 235 261 228T187 202T159 148Q159 130
167 117T193 96T237 88ZM341 591H240L132 720L133 723H260L341 591Z" />
<glyph unicode="&#xe1;" horiz-adv-x="556" d="M200 -12Q178 -12 150 -7T95 14T51 58T34 136Q34 190 58 225T125 281T229 310T362 319V362Q362 385 355 403T330 431T274 442Q237 442 216 433T187 411T179 384V370H61Q60 375 60 380T60 392Q60 437 87 470T162 520T273
538Q345 538 391 518T461 461T484 371V123Q484 104 495 96T519 88H551V4Q541 0 522 -5T475 -11Q449 -11 429 -3T394 22T374 60H368Q351 39 328 23T273 -3T200 -12ZM237 88Q267 88 290 97T329 122T353 161T362 211V235Q307 235 261 228T187 202T159 148Q159 130
167 117T193 96T237 88ZM208 591L289 723H416L417 720L309 591H208Z" />
<glyph unicode="&#xe2;" horiz-adv-x="556" d="M200 -12Q178 -12 150 -7T95 14T51 58T34 136Q34 190 58 225T125 281T229 310T362 319V362Q362 385 355 403T330 431T274 442Q237 442 216 433T187 411T179 384V370H61Q60 375 60 380T60 392Q60 437 87 470T162 520T273
538Q345 538 391 518T461 461T484 371V123Q484 104 495 96T519 88H551V4Q541 0 522 -5T475 -11Q449 -11 429 -3T394 22T374 60H368Q351 39 328 23T273 -3T200 -12ZM237 88Q267 88 290 97T329 122T353 161T362 211V235Q307 235 261 228T187 202T159 148Q159 130
167 117T193 96T237 88ZM110 591L216 723H330L435 591H329L245 696L301 695L216 591H110Z" />
<glyph unicode="&#xe3;" horiz-adv-x="556" d="M200 -12Q178 -12 150 -7T95 14T51 58T34 136Q34 190 58 225T125 281T229 310T362 319V362Q362 385 355 403T330 431T274 442Q237 442 216 433T187 411T179 384V370H61Q60 375 60 380T60 392Q60 437 87 470T162 520T273
538Q345 538 391 518T461 461T484 371V123Q484 104 495 96T519 88H551V4Q541 0 522 -5T475 -11Q449 -11 429 -3T394 22T374 60H368Q351 39 328 23T273 -3T200 -12ZM237 88Q267 88 290 97T329 122T353 161T362 211V235Q307 235 261 228T187 202T159 148Q159 130
167 117T193 96T237 88ZM106 606Q106 638 115 664T146 707T200 723Q226 723 248 715T293 697T338 688Q352 688 360 695T371 723H439Q439 692 430 666T400 623T345 606Q320 606 297 615T253 633T208 642Q195 642 186 634T175 606H106Z" />
<glyph unicode="&#xe4;" horiz-adv-x="556" d="M200 -12Q178 -12 150 -7T95 14T51 58T34 136Q34 190 58 225T125 281T229 310T362 319V362Q362 385 355 403T330 431T274 442Q237 442 216 433T187 411T179 384V370H61Q60 375 60 380T60 392Q60 437 87 470T162 520T273
538Q345 538 391 518T461 461T484 371V123Q484 104 495 96T519 88H551V4Q541 0 522 -5T475 -11Q449 -11 429 -3T394 22T374 60H368Q351 39 328 23T273 -3T200 -12ZM237 88Q267 88 290 97T329 122T353 161T362 211V235Q307 235 261 228T187 202T159 148Q159 130
167 117T193 96T237 88ZM116 612V723H225V612H116ZM319 612V723H429V612H319Z" />
<glyph unicode="&#xe5;" horiz-adv-x="556" d="M200 -12Q178 -12 150 -7T95 14T51 58T34 136Q34 190 58 225T125 281T229 310T362 319V362Q362 385 355 403T330 431T274 442Q237 442 216 433T187 411T179 384V370H61Q60 375 60 380T60 392Q60 437 87 470T162 520T273
538Q345 538 391 518T461 461T484 371V123Q484 104 495 96T519 88H551V4Q541 0 522 -5T475 -11Q449 -11 429 -3T394 22T374 60H368Q351 39 328 23T273 -3T200 -12ZM237 88Q267 88 290 97T329 122T353 161T362 211V235Q307 235 261 228T187 202T159 148Q159 130
167 117T193 96T237 88ZM273 579Q230 579 202 607T173 678Q173 722 201 750T273 778Q317 778 345 750T373 678Q373 635 345 607T273 579ZM273 632Q293 632 306 645T319 678Q319 698 306 711T273 725Q253 725 240 712T227 678Q227 658 240 645T273 632Z" />
<glyph unicode="&#xe6;" horiz-adv-x="895" d="M231 -12Q205 -12 172 -7T107 14T55 58T34 136Q34 190 59 225T130 281T239 310T379 319V362Q379 385 372 403T343 431T281 442Q241 442 219 433T188 411T179 384V370H61Q60 375 60 380T60 392Q60 437 87 470T164
520T280 538Q342 538 385 523T455 480Q486 509 528 523T626 538Q702 538 753 510T830 422T856 269V233H502Q504 184 516 151T556 101T628 84Q651 84 670 90T705 108T728 140T736 184H856Q856 134 839 97T790 36T717 0T626 -12Q560 -12 512 6T434 62Q412 39 383
23T316 -3T231 -12ZM244 85Q277 85 302 93T344 118T370 158T379 211V233Q320 233 270 227T189 202T159 148Q159 128 168 114T197 93T244 85ZM504 319H729Q729 352 722 375T701 413T668 434T626 441Q588 441 562 428T522 388T504 319Z" />
<glyph unicode="&#xe7;" horiz-adv-x="547" d="M284 -12Q202 -12 148 17T66 108T39 263Q39 358 66 418T148 508T284 538Q337 538 378 525T448 486T493 420T508 329H384Q384 366 373 390T340 426T282 439Q241 439 215 420T177 364T164 269V256Q164 200 176 162T216
106T287 87Q321 87 343 99T378 137T390 197H508Q508 148 493 109T449 43T379 2T284 -12ZM273 -182Q248 -182 221 -180T172 -174V-125H264Q284 -125 295 -120T307 -101Q307 -89 299 -83T266 -77H222L236 11H314L308 -34Q334 -35 356 -42T391 -64T404 -101Q404 -126
391 -142T358 -166T316 -178T273 -182Z" />
<glyph unicode="&#xe8;" horiz-adv-x="561" d="M291 -12Q207 -12 151 17T67 108T39 263Q39 358 67 418T151 508T291 538Q367 538 418 510T496 422T522 269V233H164Q166 184 179 151T219 101T292 84Q315 84 335 90T370 108T393 140T402 184H522Q522 134 505 97T456
36T382 0T291 -12ZM166 319H395Q395 352 388 375T367 413T334 434T291 441Q252 441 226 428T185 388T166 319ZM358 591H257L149 720L150 723H277L358 591Z" />
<glyph unicode="&#xe9;" horiz-adv-x="561" d="M291 -12Q207 -12 151 17T67 108T39 263Q39 358 67 418T151 508T291 538Q367 538 418 510T496 422T522 269V233H164Q166 184 179 151T219 101T292 84Q315 84 335 90T370 108T393 140T402 184H522Q522 134 505 97T456
36T382 0T291 -12ZM166 319H395Q395 352 388 375T367 413T334 434T291 441Q252 441 226 428T185 388T166 319ZM225 591L306 723H433L434 720L326 591H225Z" />
<glyph unicode="&#xea;" horiz-adv-x="561" d="M291 -12Q207 -12 151 17T67 108T39 263Q39 358 67 418T151 508T291 538Q367 538 418 510T496 422T522 269V233H164Q166 184 179 151T219 101T292 84Q315 84 335 90T370 108T393 140T402 184H522Q522 134 505 97T456
36T382 0T291 -12ZM166 319H395Q395 352 388 375T367 413T334 434T291 441Q252 441 226 428T185 388T166 319ZM127 591L233 723H347L452 591H346L262 696L318 695L233 591H127Z" />
<glyph unicode="&#xeb;" horiz-adv-x="561" d="M291 -12Q207 -12 151 17T67 108T39 263Q39 358 67 418T151 508T291 538Q367 538 418 510T496 422T522 269V233H164Q166 184 179 151T219 101T292 84Q315 84 335 90T370 108T393 140T402 184H522Q522 134 505 97T456
36T382 0T291 -12ZM166 319H395Q395 352 388 375T367 413T334 434T291 441Q252 441 226 428T185 388T166 319ZM133 612V723H242V612H133ZM336 612V723H446V612H336Z" />
<glyph unicode="&#xec;" horiz-adv-x="252" d="M65 0V526H187V0H65ZM193 591H92L-16 720L-15 723H112L193 591Z" />
<glyph unicode="&#xed;" horiz-adv-x="252" d="M65 0V526H187V0H65ZM60 591L141 723H268L269 720L161 591H60Z" />
<glyph unicode="&#xee;" horiz-adv-x="252" d="M65 0V526H187V0H65ZM-38 591L68 723H182L287 591H181L97 696L153 695L68 591H-38Z" />
<glyph unicode="&#xef;" horiz-adv-x="252" d="M65 0V526H187V0H65ZM-32 612V723H77V612H-32ZM171 612V723H281V612H171Z" />
<glyph unicode="&#xf0;" horiz-adv-x="614" d="M307 -12Q221 -12 163 17T76 106T47 260Q47 347 73 407T148 499T268 531Q291 531 313 527T354 514L358 517Q344 538 328 558T294 600L132 588V657L232 664Q217 678 201 691T167 718L171 723H313Q324 715 334 707T353
691T372 674L529 686V617L436 610Q479 561 508 506T552 390T567 260Q567 167 538 107T452 17T307 -12ZM307 88Q355 88 384 106T427 161T441 253V266Q441 322 428 358T385 413T307 431Q259 431 230 413T187 359T173 267V255Q173 199 186 162T229 107T307 88Z" />
<glyph unicode="&#xf1;" horiz-adv-x="584" d="M65 0V526H167L177 456H184Q202 480 226 498T282 527T352 538Q402 538 440 520T501 462T523 355V0H400V333Q400 361 394 379T375 409T344 426T304 431Q271 431 245 415T203 371T187 306V0H65ZM127 606Q127 638 136
664T167 707T221 723Q247 723 269 715T314 697T359 688Q373 688 381 695T392 723H460Q460 692 451 666T421 623T366 606Q341 606 318 615T274 633T229 642Q216 642 207 634T196 606H127Z" />
<glyph unicode="&#xf2;" horiz-adv-x="598" d="M299 -12Q213 -12 155 17T68 108T39 263Q39 358 68 418T155 508T299 538Q386 538 443 509T530 419T559 263Q559 169 530 108T444 18T299 -12ZM299 88Q347 88 376 106T419 162T433 256V270Q433 326 420 363T377 419T299
438Q251 438 222 420T179 364T165 270V256Q165 200 178 163T221 107T299 88ZM367 591H266L158 720L159 723H286L367 591Z" />
<glyph unicode="&#xf3;" horiz-adv-x="598" d="M299 -12Q213 -12 155 17T68 108T39 263Q39 358 68 418T155 508T299 538Q386 538 443 509T530 419T559 263Q559 169 530 108T444 18T299 -12ZM299 88Q347 88 376 106T419 162T433 256V270Q433 326 420 363T377 419T299
438Q251 438 222 420T179 364T165 270V256Q165 200 178 163T221 107T299 88ZM234 591L315 723H442L443 720L335 591H234Z" />
<glyph unicode="&#xf4;" horiz-adv-x="598" d="M299 -12Q213 -12 155 17T68 108T39 263Q39 358 68 418T155 508T299 538Q386 538 443 509T530 419T559 263Q559 169 530 108T444 18T299 -12ZM299 88Q347 88 376 106T419 162T433 256V270Q433 326 420 363T377 419T299
438Q251 438 222 420T179 364T165 270V256Q165 200 178 163T221 107T299 88ZM136 591L242 723H356L461 591H355L271 696L327 695L242 591H136Z" />
<glyph unicode="&#xf5;" horiz-adv-x="598" d="M299 -12Q213 -12 155 17T68 108T39 263Q39 358 68 418T155 508T299 538Q386 538 443 509T530 419T559 263Q559 169 530 108T444 18T299 -12ZM299 88Q347 88 376 106T419 162T433 256V270Q433 326 420 363T377 419T299
438Q251 438 222 420T179 364T165 270V256Q165 200 178 163T221 107T299 88ZM132 606Q132 638 141 664T172 707T226 723Q252 723 274 715T319 697T364 688Q378 688 386 695T397 723H465Q465 692 456 666T426 623T371 606Q346 606 323 615T279 633T234 642Q221 642
212 634T201 606H132Z" />
<glyph unicode="&#xf6;" horiz-adv-x="598" d="M299 -12Q213 -12 155 17T68 108T39 263Q39 358 68 418T155 508T299 538Q386 538 443 509T530 419T559 263Q559 169 530 108T444 18T299 -12ZM299 88Q347 88 376 106T419 162T433 256V270Q433 326 420 363T377 419T299
438Q251 438 222 420T179 364T165 270V256Q165 200 178 163T221 107T299 88ZM142 612V723H251V612H142ZM345 612V723H455V612H345Z" />
<glyph unicode="&#xf7;" horiz-adv-x="636" d="M82 206V305H554V206H82ZM260 1V108H374V1H260ZM260 405V512H374V405H260Z" />
<glyph unicode="&#xf8;" horiz-adv-x="598" d="M299 -12Q213 -12 155 17T68 108T39 263Q39 358 68 418T155 508T299 538Q386 538 443 509T530 419T559 263Q559 169 530 108T444 18T299 -12ZM299 88Q347 88 376 106T419 162T433 256V270Q433 326 420 363T377 419T299
438Q251 438 222 420T179 364T165 270V256Q165 200 178 163T221 107T299 88ZM38 -48L478 576H559L120 -48H38Z" />
<glyph unicode="&#xf9;" horiz-adv-x="583" d="M232 -12Q156 -12 109 29T61 171V526H183V193Q183 165 189 147T208 117T239 100T279 95Q312 95 338 111T380 155T396 220V526H518V0H417L407 70H400Q382 46 358 28T302 -1T232 -12ZM360 591H259L151 720L152 723H279L360
591Z" />
<glyph unicode="&#xfa;" horiz-adv-x="583" d="M232 -12Q156 -12 109 29T61 171V526H183V193Q183 165 189 147T208 117T239 100T279 95Q312 95 338 111T380 155T396 220V526H518V0H417L407 70H400Q382 46 358 28T302 -1T232 -12ZM227 591L308 723H435L436 720L328
591H227Z" />
<glyph unicode="&#xfb;" horiz-adv-x="583" d="M232 -12Q156 -12 109 29T61 171V526H183V193Q183 165 189 147T208 117T239 100T279 95Q312 95 338 111T380 155T396 220V526H518V0H417L407 70H400Q382 46 358 28T302 -1T232 -12ZM129 591L235 723H349L454 591H348L264
696L320 695L235 591H129Z" />
<glyph unicode="&#xfc;" horiz-adv-x="583" d="M232 -12Q156 -12 109 29T61 171V526H183V193Q183 165 189 147T208 117T239 100T279 95Q312 95 338 111T380 155T396 220V526H518V0H417L407 70H400Q382 46 358 28T302 -1T232 -12ZM135 612V723H244V612H135ZM338
612V723H448V612H338Z" />
<glyph unicode="&#xfd;" horiz-adv-x="529" d="M135 -182Q98 -182 75 -177T49 -170V-83H105Q126 -83 147 -72T185 -42T210 0L5 526H133L231 274Q238 257 245 231T261 178T274 128H279Q283 143 288 162T298 201T310 240T320 273L400 526H524L348 27Q333 -15 315
-53T272 -120T214 -165T135 -182ZM210 591L291 723H418L419 720L311 591H210Z" />
<glyph unicode="&#xfe;" horiz-adv-x="592" d="M65 -173V733H187V465H193Q209 489 232 505T285 530T351 538Q411 538 456 509T527 419T553 262Q553 168 527 107T456 17T351 -12Q315 -12 285 -4T232 20T193 61H187V-173H65ZM306 93Q351 93 377 110T415 164T427
255V269Q427 325 416 361T378 415T306 433Q275 433 253 423T216 391T194 340T187 269V257Q187 205 199 168T238 112T306 93Z" />
<glyph unicode="&#xff;" horiz-adv-x="529" d="M135 -182Q98 -182 75 -177T49 -170V-83H105Q126 -83 147 -72T185 -42T210 0L5 526H133L231 274Q238 257 245 231T261 178T274 128H279Q283 143 288 162T298 201T310 240T320 273L400 526H524L348 27Q333 -15 315
-53T272 -120T214 -165T135 -182ZM118 612V723H227V612H118ZM321 612V723H431V612H321Z" />
<glyph unicode="&#x2013;" horiz-adv-x="500" d="M0 225V316H500V225H0Z" />
<glyph unicode="&#x2014;" horiz-adv-x="1000" d="M0 225V316H1000V225H0Z" />
<glyph unicode="&#x2018;" horiz-adv-x="280" d="M207 686V635Q183 631 168 615T146 575T138 523H200V395H73V512Q73 571 92 606T141 661T207 686Z" />
<glyph unicode="&#x2019;" horiz-adv-x="280" d="M73 395V446Q97 450 112 466T135 506T142 558H80V686H207V569Q207 511 188 475T139 421T73 395Z" />
<glyph unicode="&#x201a;" horiz-adv-x="280" d="M73 -163V-112Q97 -108 112 -92T135 -52T142 0H80V128H207V11Q207 -47 188 -83T139 -137T73 -163Z" />
<glyph unicode="&#x201c;" horiz-adv-x="482" d="M409 686V635Q385 631 370 615T348 575T340 523H402V395H275V512Q275 571 294 606T343 661T409 686ZM207 686V635Q183 631 168 615T146 575T138 523H200V395H73V512Q73 571 92 606T141 661T207 686Z" />
<glyph unicode="&#x201d;" horiz-adv-x="482" d="M73 395V446Q97 450 112 466T135 506T142 558H80V686H207V569Q207 511 188 475T139 421T73 395ZM275 395V446Q299 450 314 466T337 506T344 558H282V686H409V569Q409 511 390 475T341 421T275 395Z" />
<glyph unicode="&#x201e;" horiz-adv-x="482" d="M73 -163V-112Q97 -108 112 -92T135 -52T142 0H80V128H207V11Q207 -47 188 -83T139 -137T73 -163ZM275 -163V-112Q299 -108 314 -92T337 -52T344 0H282V128H409V11Q409 -47 390 -83T341 -137T275 -163Z" />
<glyph unicode="&#x2022;" horiz-adv-x="425" d="M212 212Q174 212 145 229T98 275T81 343Q81 382 98 411T144 458T212 475Q251 475 280 458T327 412T344 343Q344 305 327 276T281 229T212 212Z" />
<glyph unicode="&#x2039;" horiz-adv-x="356" d="M210 126L68 326L210 526H301L186 326L301 126H210Z" />
<glyph unicode="&#x203a;" horiz-adv-x="356" d="M146 526L288 326L146 126H55L170 326L55 526H146Z" />
</font>
</defs>
</svg>
